<svg xmlns="http://www.w3.org/2000/svg" xmlns:xlink="http://www.w3.org/1999/xlink" xmlns:fi="http://pattern.flaticon.com/" x="0" y="0" width="2560" height="1440" viewBox="0 0 2560 1440"><rect x="0px" y="0px" width="100%" height="100%" opacity="1" fill="#ffffff"/><defs><g transform="matrix(0.19059960441438506 -0.03754234673237287 0.03754234673237287 0.19059960441438506 166.44032463732853 264.07694864536)" id="L1_38"><path d="M183.996,396.328L183.996,396.328c0,2.44,0.2,4.88,0.6,7.288l9.224,55.336  c3.56,21.376,22.056,37.04,43.728,37.04h20.896c21.672,0,40.168-15.664,43.728-37.04l9.224-55.336c0.4-2.408,0.6-4.84,0.6-7.288l0,0  c0-24.48-19.848-44.328-44.328-44.328h-39.336C203.844,352,183.996,371.848,183.996,396.328z" fill="#ffa64d"/><g><path d="M393.54,168c7.288-2.336,13.512-6.936,17.6-13.44c4.528-7.2,5.96-15.72,4.032-23.976   c-3.784-16.256-19.64-26.624-36.136-24.392c5.504-5.176,9.08-11.928,9.928-19.472c0.96-8.504-1.512-16.864-6.952-23.536   c-10.624-13.04-29.608-15.552-43.472-6.384c2.712-6.992,3.008-14.592,0.504-21.76c-2.856-8.168-8.792-14.712-16.704-18.44   c-15.352-7.232-33.656-1.384-42.072,12.92C278.956,13.048,265.068,0,247.996,0s-30.96,13.048-32.272,29.528   c-8.408-14.288-26.68-20.168-42.072-12.912c-7.912,3.728-13.848,10.272-16.704,18.44c-2.504,7.168-2.216,14.768,0.504,21.76   c-13.872-9.192-32.856-6.664-43.472,6.376c-5.44,6.672-7.912,15.032-6.952,23.536c0.848,7.544,4.424,14.296,9.928,19.472   c-16.464-2.224-32.344,8.136-36.136,24.376c-1.928,8.264-0.496,16.784,4.032,23.984c4.088,6.504,10.304,11.104,17.6,13.44   c-7.288,2.336-13.512,6.936-17.6,13.44c-4.528,7.2-5.96,15.72-4.032,23.976c3.448,14.8,16.888,24.848,31.712,24.848   c1.472,0,2.968-0.288,4.456-0.496c-5.528,5.184-9.112,11.944-9.96,19.504c-0.96,8.504,1.512,16.864,6.952,23.536   c6.408,7.856,15.872,11.952,25.416,11.952c6.28,0,12.544-1.88,18.04-5.512c-2.696,6.976-2.976,14.552-0.48,21.704   c2.856,8.168,8.792,14.712,16.704,18.44c4.504,2.128,9.28,3.136,13.984,3.136c7.256,0,14.32-2.44,20.048-6.816   C209.62,336.008,226.852,352,247.996,352s38.376-16,40.312-36.288c5.728,4.376,12.792,6.816,20.048,6.816   c4.696,0,9.472-1.008,13.976-3.136c7.912-3.728,13.848-10.272,16.704-18.44c2.496-7.144,2.216-14.728-0.48-21.704   c5.504,3.632,11.76,5.52,18.04,5.52c9.544,0,19.008-4.096,25.408-11.952c5.44-6.672,7.912-15.032,6.952-23.536   c-0.848-7.56-4.432-14.32-9.96-19.504c1.488,0.208,2.984,0.496,4.456,0.496c14.824,0,28.264-10.056,31.704-24.84   c1.928-8.264,0.496-16.784-4.032-23.984C407.044,174.936,400.828,170.328,393.54,168z M383.476,121.736   c7.552,0,14.376,5.048,16.112,12.488c0.952,4.072,0.24,8.272-2,11.832c-2.336,3.712-6.024,6.296-10.4,7.272l0,0   c-8.928,1.936-17.816-3.424-19.832-12.072c-0.952-4.064-0.24-8.264,2-11.832c2.336-3.712,6.032-6.296,10.4-7.28   C380.996,121.864,382.252,121.736,383.476,121.736z M340.212,81.472c0.48-4.24,2.632-8.04,6.056-10.72   c3.064-2.392,6.728-3.552,10.368-3.552c4.88,0,9.712,2.088,12.976,6.096c2.696,3.312,3.928,7.448,3.456,11.64   c-0.48,4.232-2.632,8.048-6.056,10.728c-7.168,5.592-17.632,4.456-23.336-2.544C340.964,89.808,339.74,85.664,340.212,81.472z    M293.372,38.584c2.832-5.768,8.752-9.128,14.92-9.128c2.424,0,4.888,0.52,7.224,1.616c4,1.888,6.992,5.168,8.424,9.256   c1.384,3.96,1.128,8.232-0.736,12.016c-3.952,8.04-13.864,11.392-22.144,7.504c-4-1.888-6.992-5.168-8.424-9.256   C291.252,46.64,291.508,42.368,293.372,38.584z M247.996,16c9.112,0,16.52,7.176,16.52,16s-7.408,16-16.52,16   s-16.52-7.176-16.52-16S238.884,16,247.996,16z M218.46,55.888c0.904-2.576,1.336-5.216,1.552-7.864   C225.66,57.536,236.02,64,247.996,64c11.976,0,22.336-6.464,27.984-15.968c0.216,2.648,0.656,5.288,1.552,7.864   c2.856,8.168,8.792,14.712,16.704,18.44c4.504,2.128,9.272,3.136,13.976,3.136c6.432,0,12.712-1.936,18.048-5.416   c-0.92,2.44-1.656,4.968-1.952,7.624c-0.96,8.504,1.504,16.872,6.952,23.552c6.408,7.856,15.864,11.952,25.416,11.952   c1.408,0,2.808-0.16,4.208-0.336c-1.896,1.816-3.656,3.792-5.088,6.072c-4.52,7.208-5.96,15.728-4.032,23.976   c2.624,11.24,11.016,19.72,21.392,23.152c-10.36,3.44-18.776,11.832-21.392,23.056c-1.928,8.256-0.496,16.776,4.024,23.984   c1.448,2.304,3.232,4.296,5.16,6.136c-10.928-1.424-22.328,2.512-29.696,11.552c-5.44,6.68-7.912,15.048-6.952,23.552   c0.304,2.704,1.056,5.272,2.008,7.752c-9.248-6.072-21.368-7.456-32.08-2.408c-7.912,3.728-13.848,10.272-16.704,18.44   c-0.408,1.168-0.592,2.368-0.864,3.552c-7.352-7.2-17.488-11.664-28.664-11.664s-21.312,4.464-28.68,11.664   c-0.272-1.184-0.456-2.384-0.864-3.552c-2.856-8.168-8.792-14.712-16.704-18.44c-10.712-5.04-22.832-3.664-32.08,2.416   c0.952-2.48,1.704-5.048,2.008-7.76c0.96-8.504-1.504-16.872-6.952-23.552c-7.368-9.04-18.768-12.976-29.696-11.552   c1.928-1.832,3.712-3.832,5.16-6.136c4.52-7.208,5.96-15.728,4.032-23.976c-2.616-11.224-11.024-19.624-21.384-23.072   c10.368-3.44,18.76-11.92,21.376-23.144c1.928-8.256,0.496-16.776-4.024-23.984c-1.432-2.28-3.192-4.256-5.088-6.072   c1.4,0.176,2.8,0.336,4.208,0.336c9.544,0,19.008-4.096,25.416-11.952c5.44-6.68,7.912-15.048,6.952-23.552   c-0.304-2.656-1.032-5.184-1.952-7.624c5.336,3.48,11.616,5.416,18.048,5.416c4.704,0,9.472-1.008,13.976-3.136   C209.668,70.6,215.604,64.056,218.46,55.888z M172.052,40.336c1.432-4.088,4.424-7.368,8.424-9.256   c2.336-1.096,4.8-1.616,7.224-1.616c6.168,0,12.088,3.36,14.92,9.128c1.864,3.784,2.128,8.056,0.736,12.016   c-1.432,4.088-4.424,7.368-8.424,9.256c-8.264,3.872-18.192,0.52-22.144-7.504C170.932,48.568,170.668,44.296,172.052,40.336z    M126.388,73.296c3.264-4.008,8.096-6.096,12.968-6.096c3.64,0,7.304,1.16,10.368,3.544v0.008   c3.424,2.672,5.576,6.472,6.056,10.712c0.472,4.192-0.752,8.336-3.456,11.648c-5.704,7-16.168,8.144-23.336,2.544   c-3.432-2.68-5.584-6.496-6.056-10.728C122.46,80.744,123.684,76.608,126.388,73.296z M98.404,146.056   c-2.24-3.56-2.952-7.768-2-11.84c1.728-7.432,8.552-12.48,16.104-12.48c1.224,0,2.48,0.136,3.72,0.408   c4.376,0.984,8.072,3.568,10.4,7.28c2.24,3.568,2.952,7.776,2,11.84c-2.016,8.64-10.912,14.008-19.832,12.064   C104.436,152.352,100.74,149.768,98.404,146.056z M96.404,201.784c-0.952-4.072-0.24-8.272,2-11.832   c2.336-3.712,6.024-6.296,10.4-7.272l0,0c1.248-0.272,2.496-0.416,3.728-0.416c7.544,0,14.36,5.048,16.096,12.488   c0.952,4.064,0.24,8.264-2,11.832c-2.336,3.712-6.032,6.296-10.4,7.28C107.308,215.8,98.42,210.432,96.404,201.784z    M155.78,254.528c-0.48,4.24-2.632,8.04-6.056,10.72c-7.168,5.6-17.64,4.456-23.336-2.544c-2.696-3.312-3.928-7.448-3.456-11.64   c0.48-4.232,2.632-8.048,6.056-10.728c3.064-2.392,6.728-3.544,10.36-3.544c4.872,0,9.704,2.088,12.976,6.096   C155.028,246.192,156.252,250.336,155.78,254.528z M202.62,297.416c-3.936,8.032-13.872,11.384-22.144,7.504   c-4-1.888-6.992-5.168-8.424-9.256c-1.384-3.96-1.128-8.232,0.736-12.016c2.832-5.768,8.752-9.128,14.92-9.128   c2.424,0,4.888,0.52,7.224,1.616c4,1.888,6.992,5.168,8.424,9.256C204.74,289.36,204.484,293.632,202.62,297.416z M247.996,336   c-13.616,0-24.696-10.768-24.696-24s11.08-24,24.696-24s24.696,10.768,24.696,24S261.612,336,247.996,336z M323.94,295.664   c-1.432,4.088-4.424,7.368-8.424,9.256c-8.264,3.872-18.192,0.52-22.144-7.504c-1.864-3.784-2.128-8.056-0.736-12.016   c1.432-4.088,4.424-7.368,8.424-9.256c2.336-1.096,4.8-1.616,7.224-1.616c6.168,0,12.08,3.36,14.92,9.128   C325.06,287.432,325.324,291.704,323.94,295.664z M369.604,262.704c-5.704,7.008-16.168,8.144-23.336,2.544v-0.008   c-3.424-2.672-5.576-6.472-6.056-10.712c-0.472-4.192,0.752-8.336,3.456-11.648c3.272-4.008,8.104-6.096,12.976-6.096   c3.64,0,7.304,1.16,10.36,3.544c3.432,2.68,5.584,6.496,6.056,10.728C373.532,255.256,372.308,259.392,369.604,262.704z    M399.58,201.792c-2.008,8.64-10.904,14.032-19.832,12.072c-4.376-0.984-8.072-3.568-10.4-7.28c-2.24-3.568-2.952-7.776-2-11.84   c2.008-8.64,10.904-14.008,19.832-12.064c4.376,0.976,8.064,3.56,10.4,7.272C399.828,193.504,400.532,197.712,399.58,201.792z" fill="#3f3a34"/><path d="M266.884,376h-37.776c-5.448,0-10.552,2.12-14.376,5.952c-4.528,4.52-6.672,11.008-5.744,17.344   l8.672,59.032c1.144,7.8,7.952,13.672,15.832,13.672h29.016c7.88,0,14.688-5.872,15.832-13.672l1.576-10.728l-15.832-2.328   L262.5,456h-29.016l-8.672-59.032c-0.192-1.352,0.256-2.728,1.24-3.704c0.808-0.816,1.896-1.264,3.056-1.264h37.776   c1.16,0,2.248,0.448,3.072,1.28c0.968,0.96,1.416,2.336,1.224,3.688l-4.976,33.872l15.832,2.328l4.976-33.872   c0.928-6.336-1.216-12.824-5.728-17.328C277.436,378.12,272.332,376,266.884,376z" fill="#3f3a34"/></g></g><g transform="matrix(0.12068401945452764 -0.041977051326645656 0.041977051326645656 0.12068401945452764 -0.3181335157776317 279.460506890912)" id="L1_39"><path d="M415.983,104V73.52c0-14.072-11.448-25.52-25.512-25.52c-6.088,0-11.984,2.176-16.376,5.952  l-30.384,24.064C339.487,74.32,334.023,72,327.983,72s-11.504,2.32-15.728,6.016l-30.152-23.872  C277.487,50.176,271.583,48,265.495,48c-14.064,0-25.512,11.448-25.512,25.52V104h-16v80h16v104h176V184h16v-80H415.983z   M384.263,66.296c1.728-1.48,3.928-2.296,6.208-2.296c5.248,0,9.512,4.272,9.512,9.52V104h-49.472c0.896-2.512,1.472-5.184,1.472-8  c0-1.312-0.184-2.568-0.384-3.824L384.263,66.296z M311.983,168v-48h32v48H311.983z M327.983,88c4.416,0,8,3.592,8,8s-3.584,8-8,8  s-8-3.592-8-8S323.567,88,327.983,88z M255.983,73.52c0-5.248,4.264-9.52,9.512-9.52c2.272,0,4.48,0.816,6.44,2.488l32.432,25.688  c-0.2,1.256-0.384,2.512-0.384,3.824c0,2.816,0.576,5.488,1.472,8h-49.472V73.52z M239.983,120h56v48h-40h-8h-8V120z M255.983,272  v-88h144v88H255.983z M415.983,168h-8h-8h-40v-48h56V168z" fill="#3f3a34"/><path d="M251.711,495.984c-7.816,0-15.68-0.36-23.6-1.088C107.327,483.776,11.823,388.008,1.023,267.16  C-9.897,144.952,67.743,32.952,185.631,0.856C187.703,0.288,189.879,0,192.103,0c13.168,0,23.88,10.712,23.88,23.88v1.504  c0,6.216-2.488,12.184-6.992,16.816c-30.224,30.952-49.008,79.152-49.008,125.8c0,92.632,75.368,168,168,168  c46.648,0,94.848-18.784,125.808-49.008c4.616-4.504,10.584-6.992,16.808-6.992h1.504c13.168,0,23.88,10.712,23.88,23.88  c0,2.216-0.288,4.4-0.864,6.488C465.023,420.928,364.815,495.976,251.711,495.984z" fill="#ffa64d"/><g><path d="M48.023,240.144l-16-0.28c0.096-5.464,0.408-11.04,0.92-16.6l15.936,1.488   C48.399,229.904,48.111,235.08,48.023,240.144z" fill="#3f3a34"/><path d="M50.911,209.344l-15.768-2.696c9.088-53.144,37.448-101.016,79.848-134.808l9.968,12.512   C85.639,115.688,59.343,160.08,50.911,209.344z" fill="#3f3a34"/></g></g><g transform="matrix(0.12096773833036423 0 0 0.12096773833036423 -18 170)" id="L1_40"><g><path d="M224,327.784c0,14.256-4.184,28.072-12.096,39.936L192,397.576V496h16v-93.576l17.216-25.832   C234.888,362.096,240,345.208,240,327.784V168h-16V327.784z" fill="#3f3a34"/><path d="M176,232h16v-72c0-6.776,4.288-12.832,10.664-15.096l-5.336-15.08   c-1.888,0.664-3.648,1.544-5.336,2.52V128c0-17.648-14.352-32-32-32c-6.632,0-12.8,2.032-17.912,5.504   C137.712,89.024,125.952,80,112,80s-25.712,9.024-30.088,21.504C76.8,98.032,70.632,96,64,96c-17.648,0-32,14.352-32,32v56.2   c-17.8,1.048-32,15.72-32,33.784v61.856c0,6.664,1.688,13.288,4.88,19.152L48,378.04V496h16V373.96l-45.072-82.624   C17.008,287.824,16,283.84,16,279.84v-61.856C16,208.072,24.064,200,33.984,200c8.832,0,16.296,6.32,17.744,15.024l13.048,78.312   l48.928,24.464l14.864,37.168l14.856-5.936L126.288,306.2l-47.072-23.536L67.504,212.4C65.592,200.88,58.04,191.68,48,187.128V128   c0-8.824,7.176-16,16-16s16,7.176,16,16v104h16V128v-16c0-8.824,7.176-16,16-16s16,7.176,16,16v16v104h16V128   c0-8.824,7.176-16,16-16s16,7.176,16,16v32V232z" fill="#3f3a34"/><path d="M272,327.784V168h-16v159.784c0,17.432,5.112,34.312,14.784,48.816L288,402.424V496h16v-98.424   l-19.904-29.856C276.184,355.848,272,342.04,272,327.784z" fill="#3f3a34"/><path d="M464,184.2V128c0-17.648-14.352-32-32-32c-6.632,0-12.8,2.032-17.912,5.504   C409.712,89.024,397.952,80,384,80s-25.712,9.024-30.088,21.504C348.8,98.032,342.632,96,336,96c-17.648,0-32,14.352-32,32v4.344   c-1.688-0.976-3.44-1.848-5.32-2.52l-5.336,15.08C299.72,147.168,304,153.224,304,160v72h16v-72v-32c0-8.824,7.176-16,16-16   s16,7.176,16,16v104h16V128v-16c0-8.824,7.176-16,16-16s16,7.176,16,16v16v104h16V128c0-8.824,7.176-16,16-16s16,7.176,16,16   v59.128c-10.04,4.544-17.592,13.752-19.504,25.272l-11.712,70.264L369.712,306.2l-17.136,42.832l14.856,5.936l14.864-37.168   l48.928-24.464l13.048-78.312C445.72,206.32,453.184,200,462.016,200c9.92,0,17.984,8.072,17.984,17.984v61.856   c0,4-1.008,7.976-2.928,11.496L432,373.96V496h16V378.04l43.12-79.048c3.192-5.856,4.88-12.488,4.88-19.152v-61.856   C496,199.92,481.8,185.248,464,184.2z" fill="#3f3a34"/></g><path d="M248,176c-35.288,0-64-28.712-64-64s28.712-64,64-64s64,28.712,64,64S283.288,176,248,176z" fill="#ffa64d"/><g><rect x="248px" y="80px" width="16px" height="16px" fill="#3f3a34"/><rect x="248px" y="112px" width="16px" height="16px" fill="#3f3a34"/><rect x="264px" y="96px" width="16px" height="16px" fill="#3f3a34"/><rect x="232px" y="96px" width="16px" height="16px" fill="#3f3a34"/><rect x="312px" y="0px" width="16px" height="16px" fill="#3f3a34"/><rect x="312px" y="32px" width="16px" height="16px" fill="#3f3a34"/><rect x="328px" y="16px" width="16px" height="16px" fill="#3f3a34"/><rect x="296px" y="16px" width="16px" height="16px" fill="#3f3a34"/><rect x="152px" y="32px" width="16px" height="16px" fill="#3f3a34"/><rect x="152px" y="64px" width="16px" height="16px" fill="#3f3a34"/><rect x="168px" y="48px" width="16px" height="16px" fill="#3f3a34"/><rect x="136px" y="48px" width="16px" height="16px" fill="#3f3a34"/></g></g><g transform="matrix(0.18318170926281854 0.04462118407907532 -0.04462118407907532 0.18318170926281854 252.636988860362 5.504881557140649)" id="L1_41"><rect x="92px" y="48px" width="312px" height="320px" fill="#ffa64d"/><g><path d="M92,0C65.528,0,44,21.528,44,48v400c0,26.472,21.528,48,48,48h360v-16c-17.648,0-32-14.352-32-32   s14.352-32,32-32v-8v-8V0H92z M416.256,480H92c-17.648,0-32-14.352-32-32s14.352-32,32-32h324.256   C408.64,424.496,404,435.72,404,448S408.64,471.504,416.256,480z M92,400c-12.304,0-23.496,4.688-32,12.32V48   c0-17.648,14.352-32,32-32h344v384H92z" fill="#3f3a34"/><rect x="76px" y="440px" width="280px" height="16px" fill="#3f3a34"/><rect x="372px" y="440px" width="16px" height="16px" fill="#3f3a34"/><path d="M268.232,294.432C309.016,286.792,340,250.968,340,208s-30.984-78.792-71.768-86.432   C272.976,117.176,276,110.96,276,104c0-13.232-10.768-24-24-24s-24,10.768-24,24c0,6.96,3.024,13.176,7.768,17.568   C194.984,129.208,164,165.032,164,208s30.984,78.792,71.768,86.432C231.024,298.824,228,305.04,228,312c0,13.232,10.768,24,24,24   s24-10.768,24-24C276,305.04,272.976,298.824,268.232,294.432z M220,208c0-17.648,14.352-32,32-32s32,14.352,32,32   s-14.352,32-32,32S220,225.648,220,208z M257.136,160.288c-1.688-0.184-3.4-0.288-5.136-0.288s-3.448,0.104-5.136,0.288   l-0.088-0.024l5.224-8.72l5.232,8.712L257.136,160.288z M246.864,255.712c1.688,0.184,3.4,0.288,5.136,0.288   s3.448-0.104,5.136-0.288l0.088,0.024l-5.224,8.72l-5.232-8.712L246.864,255.712z M273.456,259.792l21.984,5.496   c-9.632,7.32-21.12,12.256-33.656,13.968L273.456,259.792z M291.912,247.92l-9.856-2.464l0.096-0.16   c2.624-2.128,5.024-4.52,7.152-7.152l0.152-0.088L291.912,247.92z M299.712,213.144c0.184-1.696,0.288-3.408,0.288-5.144   s-0.104-3.448-0.288-5.144l0.024-0.088l8.712,5.232l-8.712,5.232L299.712,213.144z M289.296,177.848   c-2.128-2.624-4.52-5.024-7.152-7.152l-0.096-0.16l9.856-2.464l-2.464,9.864L289.296,177.848z M273.456,156.208l-11.68-19.464   c12.536,1.712,24.032,6.648,33.656,13.968L273.456,156.208z M230.544,156.208l-21.984-5.496c9.632-7.32,21.12-12.256,33.656-13.968   L230.544,156.208z M212.088,168.08l9.856,2.464l-0.096,0.16c-2.624,2.128-5.024,4.52-7.152,7.152l-0.152,0.088L212.088,168.08z    M204.288,202.856C204.104,204.552,204,206.264,204,208s0.104,3.448,0.288,5.144l-0.024,0.088L195.552,208l8.712-5.232   L204.288,202.856z M214.704,238.152c2.128,2.624,4.52,5.024,7.152,7.152l0.096,0.16l-9.856,2.464l2.464-9.864L214.704,238.152z    M230.544,259.792l11.68,19.464c-12.536-1.712-24.032-6.648-33.656-13.968L230.544,259.792z M309.288,251.432l-5.496-21.976   l19.464-11.68C321.544,230.312,316.608,241.808,309.288,251.432z M323.256,198.224l-19.464-11.68l5.496-21.976   C316.608,174.192,321.544,185.688,323.256,198.224z M252,96c4.408,0,8,3.584,8,8s-3.592,8-8,8s-8-3.584-8-8S247.592,96,252,96z    M194.712,164.568l5.496,21.976l-19.464,11.68C182.456,185.688,187.392,174.192,194.712,164.568z M180.744,217.776l19.464,11.68   l-5.496,21.976C187.392,241.808,182.456,230.312,180.744,217.776z M252,320c-4.408,0-8-3.584-8-8s3.592-8,8-8c4.408,0,8,3.584,8,8   S256.408,320,252,320z" fill="#3f3a34"/><rect x="340px" y="320px" width="16px" height="16px" fill="#3f3a34"/><rect x="292px" y="320px" width="32px" height="16px" fill="#3f3a34"/></g></g><g transform="matrix(0.16974115371704102 0 0 0.16974115371704102 114.90419298410416 136.9131743782783)" id="L1_42"><g><path d="M384,228c16-64-16-88-64-104s-72-48-72-48s-24,32-72,48s-80,40-64,104H384z" fill="#ffa64d"/><path d="M251.12,39.928c-5.592-12.008-4.016-25.536,2.792-35.8c-5.976-0.496-12.136,0.416-17.936,3.264   c-17.496,8.592-24.888,30.128-16.528,48.096c8.368,17.968,29.328,25.568,46.824,16.976c5.8-2.848,10.36-7.2,13.736-12.288   C267.952,59.168,256.712,51.944,251.12,39.928z" fill="#ffa64d"/></g><g><path d="M486.48,284c14.08-28.784,12.368-59.952-5.192-90.944c-11.624-20.52-26.888-35.12-33.288-40.752V116   h-16v36.32c-6.344,5.632-21.48,20.24-32.976,40.776c-6.528,11.656-10.784,23.336-12.856,34.904H110.344   c-2.12-11.584-6.44-23.272-13.056-34.944C85.664,172.536,70.4,157.936,64,152.304V116H48v36.32   c-6.344,5.632-21.48,20.24-32.976,40.776C-2.328,224.072-3.92,255.232,10.176,284H0v208h104h8h272h8h104V284L486.48,284L486.48,284   z M480,340h-80v-40h80V340z M448,420h-16v-24c0-4.416,3.584-8,8-8s8,3.584,8,8V420z M440,372c-13.232,0-24,10.768-24,24v24h-16v-64   h80v64h-16v-24C464,382.768,453.232,372,440,372z M439.992,166.64c6.544,6.112,18.296,18.272,27.384,34.304   c16.44,29.024,16.544,56.928,0.696,83.056H412.44C379.64,229.864,424.256,181.272,439.992,166.64z M394.176,284H392h-8h-16v-40   h16.728C384.72,257.664,387.84,271.072,394.176,284z M144,284v-40h16v40H144z M176,244h16v40h-16V244z M208,244h16v40h-16V244z    M240,244h16v40h-16V244z M272,244h16v40h-16V244z M304,244h16v24h16v-24h16v40h-48V244z M128,244v40h-16h-8h-1.52   c6.32-12.928,9.416-26.344,9.36-40L128,244L128,244z M64,420H48v-24c0-4.416,3.584-8,8-8s8,3.584,8,8V420z M56,372   c-13.232,0-24,10.768-24,24v24H16v-64h48v-16H16v-40h80v40H80v16h16v64H80v-24C80,382.768,69.232,372,56,372z M55.992,166.64   c6.544,6.112,18.296,18.272,27.384,34.304c16.44,29.024,16.544,56.928,0.696,83.056H28.44   C-4.36,229.864,40.256,181.272,55.992,166.64z M16,476v-40h80v40H16z M216,476h-72V368c0-19.848,16.152-36,36-36s36,16.152,36,36   V476z M352,476h-72V368c0-19.848,16.152-36,36-36s36,16.152,36,36V476z M368,476V368c0-28.672-23.328-52-52-52s-52,23.328-52,52   v108h-32V368c0-28.672-23.328-52-52-52s-52,23.328-52,52v108h-16V300h272v176H368z M400,476v-40h80v40H400z" fill="#3f3a34"/><path d="M253.016,134.912l-10.032-12.472c-3.032,2.448-6.344,4.952-9.952,7.48l9.184,13.112   C246.128,140.288,249.72,137.56,253.016,134.912z" fill="#3f3a34"/><path d="M188.648,169.944c14.704-4.896,28.84-11.424,42.032-19.408l-8.28-13.688   c-12.168,7.368-25.232,13.392-38.816,17.92c-39.24,13.072-56.336,27.048-59.016,48.224l15.872,2   C141.752,194.704,148.488,183.336,188.648,169.944z" fill="#3f3a34"/></g></g><g transform="matrix(-0.18628805875778198 0 0 0.18628805875778198 199.19326972001693 -12.125545974318698)" id="L1_44"><path d="M389.598,176.067H216.102c-17.672,0-32,14.328-32,32v40l0.112,0.112  c-0.016,0.424-0.112,0.832-0.112,1.264v78.624h-48v64h48h32c17.672,0,32-14.328,32-32v-32v-18.024l10.352,10.024  c-2.768,9.288-3.28,19.56-0.512,30.248c6.456,24.952,29.952,41.752,55.728,41.752h126.432v-90.44  c15.32-13.744,24.776-33.888,23.952-56.28C462.598,206.227,428.742,176.067,389.598,176.067z" fill="#ffa64d"/><g><rect x="360px" y="272px" width="16px" height="16px" fill="#3f3a34"/><path d="M472.102,312.067h-24v-6.984c16.096-15.784,24.784-37.456,23.944-60.032   c-1.576-42.456-38.56-76.984-82.44-76.984H216.102c-10.904,0-20.784,4.408-28.008,11.512c-3.976-12.4-10.832-23.784-20.312-33.256   c-14.44-14.448-33.296-22.824-53.504-24.064l-41.272-22.008c-10.648-6.768-24.344-5.272-33.28,3.656L7.942,135.691   c-8.936,8.928-10.44,22.616-3.96,32.76l22.32,41.808c1.248,20.208,9.616,39.056,24.064,53.496   c15.68,15.688,36.528,24.32,58.712,24.32c22.168,0,43.032-8.632,58.712-24.32c3.08-3.072,5.8-6.4,8.32-9.848v66.16h-40h-8h-28   c-11.032,0-20,8.968-20,20c0,1.368,0.144,2.704,0.408,4h-4.416c-15.44,0-28,12.56-28,28s12.56,28,28,28h52h8h80   c20.064,0,36.576-14.904,39.416-34.2c11,20.664,33.184,34.2,58.152,34.2h134.432v-8.208c6.704,5.08,14.96,8.208,24,8.208   c13.232,0,24-10.768,24-24v-40C496.102,322.835,485.334,312.067,472.102,312.067z M76.102,384.067c-6.616,0-12-5.384-12-12   s5.384-12,12-12h24h4h8v-16h-8h-4c-2.2,0-4-1.8-4-4s1.8-4,4-4h28v48H76.102z M19.254,146.995l31.784-31.784   c3.528-3.528,9.168-4.144,13.912-1.168l21.04,11.232c-13.328,3.832-25.552,10.96-35.632,21.04   c-10.088,10.08-17.208,22.312-21.04,35.648l-11.536-21.576C15.102,156.163,15.718,150.539,19.254,146.995z M61.67,157.635   c12.656-12.664,29.496-19.632,47.4-19.632c10.976,0,21.536,2.648,30.992,7.592l-17.6,17.6c-10.456-9.152-26.44-8.776-36.416,1.216   c-9.976,9.976-10.384,25.944-1.216,36.416l-35.2,35.2c-4.944-9.456-7.584-20.016-7.584-30.992   C42.038,187.131,49.006,170.291,61.67,157.635z M156.47,252.435c-12.664,12.664-29.504,19.632-47.4,19.632   c-6.056,0-11.96-0.856-17.648-2.4l10.336-10.336l-11.312-11.312L75.47,262.995c-4.968-2.888-9.624-6.376-13.8-10.552   c-0.976-0.976-1.864-2.024-2.768-3.056l48.512-48.512l-10.056-10.056c-4.16-4.16-4.16-10.928,0-15.088   c4.152-4.152,10.92-4.168,15.088,0l10.056,10.056l30.92-30.912c1.024,0.912,2.072,1.792,3.056,2.768   c12.656,12.648,19.624,29.488,19.624,47.392C176.102,222.931,169.134,239.771,156.47,252.435z M240.102,360.067   c0,13.232-10.768,24-24,24h-72v-48h48v-86.624c0-13.008,9.496-24.112,21.616-25.264c6.912-0.6,13.464,1.52,18.52,6.128   c5,4.536,7.864,11.008,7.864,17.76V360.067z M432.102,384.067H313.67c-22.808,0-42.536-14.704-47.992-35.752   c-1.088-4.224-1.592-8.456-1.56-12.664c0.008-0.504,0.056-1,0.072-1.496c0.064-1.528,0.184-3.056,0.392-4.576   c0.072-0.512,0.152-1.024,0.232-1.536c0.312-1.832,0.712-3.664,1.24-5.48c5.864-19.904,24.272-34.496,46.048-34.496h32v-16h-32   c-24.08,0-45.08,13.384-56,33.088v-57.088c0-11.248-4.776-22.04-13.104-29.608c-8.32-7.56-19.56-11.28-30.8-10.2   c-7.504,0.712-14.384,3.664-20.104,8.152v-8.344c0-13.232,10.768-24,24-24h173.504c35.384,0,65.192,27.624,66.464,61.576   c0.672,18.216-6.488,35.648-19.584,48.304c-11.512,11.168-27.112,18.12-44.376,18.12h-40v16h40c14.608,0,28.232-4.032,40-10.928   V384.067z M480.102,376.067c0,4.416-3.584,8-8,8c-13.232,0-24-10.768-24-24v-32h24c4.416,0,8,3.584,8,8V376.067z" fill="#3f3a34"/></g></g><g transform="matrix(0.12096773833036423 0 0 0.12096773833036423 14 21)" id="L1_45"><g><rect x="136px" y="376px" width="152px" height="64px" fill="#ffa64d"/><rect x="136px" y="280px" width="152px" height="64px" fill="#ffa64d"/><rect x="136px" y="184px" width="152px" height="64px" fill="#ffa64d"/><rect x="136px" y="88px" width="152px" height="64px" fill="#ffa64d"/><path d="M72,72c23.672,0,44.296,12.888,55.368,32C132.824,94.576,136,83.672,136,72   c0-35.344-28.656-64-64-64S8,36.656,8,72c0,11.672,3.176,22.576,8.632,32C27.704,84.888,48.328,72,72,72z" fill="#ffa64d"/><path d="M72,168c23.672,0,44.296,12.888,55.368,32c5.456-9.424,8.632-20.328,8.632-32   c0-35.344-28.656-64-64-64S8,132.656,8,168c0,11.672,3.176,22.576,8.632,32C27.704,180.888,48.328,168,72,168z" fill="#ffa64d"/><path d="M72,264c23.672,0,44.296,12.888,55.368,32c5.456-9.424,8.632-20.328,8.632-32   c0-35.344-28.656-64-64-64S8,228.656,8,264c0,11.672,3.176,22.576,8.632,32C27.704,276.888,48.328,264,72,264z" fill="#ffa64d"/><path d="M72,360c23.672,0,44.296,12.888,55.368,32c5.456-9.424,8.632-20.328,8.632-32   c0-35.344-28.656-64-64-64S8,324.656,8,360c0,11.672,3.176,22.576,8.632,32C27.704,372.888,48.328,360,72,360z" fill="#ffa64d"/></g><g><path d="M72,384c-22.056,0-40,17.944-40,40s17.944,40,40,40v-16c-13.232,0-24-10.768-24-24s10.768-24,24-24   s24,10.768,24,24c0,8.544-4.6,16.504-12.008,20.792l8.016,13.848C104.336,451.504,112,438.232,112,424   C112,401.944,94.056,384,72,384z" fill="#3f3a34"/><path d="M424,192h72V80h-72c-15.664,0-29.824,6.48-40,16.88V80H144v-8c0-39.696-32.304-72-72-72   S0,32.304,0,72v352c0,39.696,32.304,72,72,72h312v-16.88c10.176,10.4,24.336,16.88,40,16.88h72V384h-72   c-15.664,0-29.824,6.48-40,16.88V175.12C394.176,185.52,408.336,192,424,192z M424,96h56v16h-56v16h56v16h-56v16h56v16h-56   c-22.056,0-40-17.944-40-40S401.944,96,424,96z M368,136h-64V96h64V136z M368,376h-64v-32h64V376z M368,328h-64v-32h64V328z    M368,280h-64v-32h64V280z M368,232h-64v-32h64V232z M304,184v-32h64v32H304z M16,72c0-30.88,25.12-56,56-56s56,25.12,56,56   v306.848C114.792,362.496,94.608,352,72,352s-42.792,10.496-56,26.848V72z M16,424c0-30.88,25.12-56,56-56s56,25.12,56,56   s-25.12,56-56,56S16,454.88,16,424z M144,424V96h144v384H117.152C133.504,466.792,144,446.608,144,424z M368,480h-64v-40h32v-16   h-32v-32h64v32h-16v16h16V480z M424,400h56v16h-56v16h56v16h-56v16h56v16h-56c-22.056,0-40-17.944-40-40S401.944,400,424,400z" fill="#3f3a34"/></g></g><g transform="matrix(0.06272721110832616 0.008553710368589384 -0.008553710368589384 0.06272721110832616 259.5649709224756 182.32233057965527)" id="L1_46"><path d="M446.464,155.672c-27.168-22.208-66.08-23.48-94.632-3.096l-6.448,4.608l-5.584-13.568  c11.416-1.832,20.2-11.68,20.2-23.616c0-10.712-7.104-19.704-16.816-22.776c-2.248-12.248-11.136-37.632-45.568-46.24  C301.576,45.656,304,39.128,304,32c0-17.648-14.352-32-32-32s-32,14.352-32,32c0,7.128,2.424,13.656,6.384,18.984  c-34.424,8.608-43.312,33.992-45.568,46.24C191.104,100.296,184,109.288,184,120c0,11.936,8.784,21.784,20.208,23.616l-24.192,58.76  c-0.256,0.624-0.48,1.264-0.736,1.896c-16.384-9.488-53.088-33.176-72.256-64.848C102.768,132.376,94.944,128,86.632,128H21.208  C9.512,128,0,137.512,0,149.208c0,9.832,6.64,18.296,16.152,20.592c12.824,3.08,43.16,12.384,48.096,32.136  C72.512,235.032,98.408,312,160,312v-0.128l9.376,0.824c2.056-23.256,6.408-46.168,12.928-68.48  c7.536,3.528,18.816,8.16,33.128,12.08c-6.184,54.024-3.216,120.168,25.808,186.936c-19.88-6.128-37.664-18.04-50.96-34.904  l-12.56,9.904c9.832,12.472,21.856,22.496,35.2,30.072C201.152,449.84,192,459.816,192,472v24h160v-24  c0-12.176-9.144-22.152-20.904-23.688c20.36-11.584,36.976-28.928,47.68-49.824l0.368,0.856l34.984-14.992  C463.864,363.048,496,314.32,496,260.208C496,219.536,477.944,181.44,446.464,155.672z M368.976,215.392  C371.696,210.08,378.608,200,392,200c33.824,0,38.848,39.64,39.52,47.6c0.32,3.8,0.48,7.92,0.48,12.608  c0,28.048-16.864,54.176-40.504,64.728C389.6,287.4,382.008,250.696,368.976,215.392z M243.76,144  c-4.376,10.672-10.896,28.288-16.84,50.992c-10.248-2.304-18.296-4.952-23.688-6.976L221.36,144H243.76z M261.12,144h18.208  c3.648,8.224,11.552,27.496,18.656,54.344C290.032,199.352,281.352,200,272,200c-10.672,0-20.504-0.848-29.36-2.128  C249.696,171.288,257.504,152.184,261.12,144z M322.64,144l18.136,44.032c-5.952,2.248-15.192,5.248-27.056,7.704  c-5.992-23.056-12.6-40.944-17.024-51.736H322.64z M272,216c10.784,0,20.728-0.8,29.784-2.016  c2.144,9.544,4.088,19.808,5.704,30.688c-10.768,2-22.68,3.328-35.488,3.328c-14.152,0-27.232-1.64-38.872-4.016  c1.616-10.792,3.56-20.976,5.696-30.448C248.744,215.016,259.864,216,272,216z M317.464,211.32  c12.848-2.68,22.872-5.968,29.416-8.472l2.312,5.624c2.768,6.728,5.248,13.528,7.592,20.368c-6.92,3.328-18.64,8.28-33.776,12.328  C321.416,230.632,319.536,220.648,317.464,211.32z M256,32c0-8.824,7.176-16,16-16s16,7.176,16,16s-7.176,16-16,16  S256,40.824,256,32z M200,120c0-4.416,3.584-8,8-8h88V96h-78.736c3.16-11.688,14.408-32,54.736-32c40.384,0,51.656,20.176,54.792,32  H312v16h24c4.416,0,8,3.584,8,8s-3.584,8-8,8H208C203.584,128,200,124.416,200,120z M155.192,295.592  c-46.904-4.256-68.312-69.056-75.432-97.528c-6.8-27.224-40.424-39.144-59.856-43.816C17.6,153.696,16,151.624,16,149.208  c0-2.872,2.336-5.208,5.208-5.208h65.424c2.752,0,5.32,1.424,6.704,3.704c22.112,36.552,63.736,62.488,80.192,71.744  C164.76,244.12,158.6,269.616,155.192,295.592z M187.216,228.816c2.344-6.84,4.84-13.64,7.6-20.344l2.312-5.624  c5.96,2.28,14.784,5.208,26.024,7.744c-2.072,9.248-3.96,19.144-5.56,29.592C204.128,236.336,193.616,231.88,187.216,228.816z   M231.04,259.944C243.32,262.36,257.08,264,272,264c13.552,0,26.136-1.368,37.544-3.424c5.848,54.128,1.856,120.608-30,187.04  c-2.504,0.184-5,0.384-7.544,0.384c-3.776,0-7.512-0.24-11.216-0.632C228.944,380.816,225.096,314.152,231.04,259.944z M328,464  c4.416,0,8,3.584,8,8v8H208v-8c0-4.416,3.584-8,8-8H328z M298.728,444.392c29.336-66.8,32.472-133.04,26.392-187.216  c15.904-4.08,28.448-9.152,36.568-12.944C371.16,276.568,376,309.976,376,344C376,392.088,343.144,432.544,298.728,444.392z   M407.832,369.656l-20.984,8.992c3.32-10.976,5.152-22.6,5.152-34.648c0-0.688-0.048-1.36-0.048-2.048  C424.768,330.744,448,297.392,448,260.208c0-5.152-0.168-9.712-0.536-13.96C445.056,217.536,429.088,184,392,184  c-14.216,0-23.8,6.6-30,13.552l-10.368-25.176l9.496-6.784c22.688-16.2,53.616-15.184,75.208,2.464  C464.088,190.768,480,224.352,480,260.208C480,307.904,451.672,350.864,407.832,369.656z" fill="#3f3a34"/><path d="M149.032,496H42.968l-2.072-1.456C15.288,476.544,0,447.184,0,416V304h192v112  c0,31.184-15.288,60.544-40.896,78.544L149.032,496z" fill="#ffa64d"/><g><path d="M48,400H32v16c0,17.064,7.04,33.728,19.304,45.72l11.184-11.44C53.28,441.28,48,428.784,48,416V400z   " fill="#3f3a34"/><rect x="0px" y="336px" width="144px" height="16px" fill="#3f3a34"/><rect x="160px" y="336px" width="32px" height="16px" fill="#3f3a34"/><rect x="32px" y="368px" width="16px" height="16px" fill="#3f3a34"/></g></g></defs><g fi:class="KUsePattern"><pattern id="pattern_L1_38" width="350" height="350" patternUnits="userSpaceOnUse"><use xlink:href="#L1_38" x="-350" y="-350"/><use xlink:href="#L1_38" x="0" y="-350"/><use xlink:href="#L1_38" x="350" y="-350"/><use xlink:href="#L1_38" x="-350" y="0"/><use xlink:href="#L1_38" x="0" y="0"/><use xlink:href="#L1_38" x="350" y="0"/><use xlink:href="#L1_38" x="-350" y="350"/><use xlink:href="#L1_38" x="0" y="350"/><use xlink:href="#L1_38" x="350" y="350"/></pattern><rect x="0" y="0" width="100%" height="100%" fill="url(#pattern_L1_38)"/></g><g fi:class="KUsePattern"><pattern id="pattern_L1_39" width="350" height="350" patternUnits="userSpaceOnUse"><use xlink:href="#L1_39" x="-350" y="-350"/><use xlink:href="#L1_39" x="0" y="-350"/><use xlink:href="#L1_39" x="350" y="-350"/><use xlink:href="#L1_39" x="-350" y="0"/><use xlink:href="#L1_39" x="0" y="0"/><use xlink:href="#L1_39" x="350" y="0"/><use xlink:href="#L1_39" x="-350" y="350"/><use xlink:href="#L1_39" x="0" y="350"/><use xlink:href="#L1_39" x="350" y="350"/></pattern><rect x="0" y="0" width="100%" height="100%" fill="url(#pattern_L1_39)"/></g><g fi:class="KUsePattern"><pattern id="pattern_L1_40" width="350" height="350" patternUnits="userSpaceOnUse"><use xlink:href="#L1_40" x="-350" y="-350"/><use xlink:href="#L1_40" x="0" y="-350"/><use xlink:href="#L1_40" x="350" y="-350"/><use xlink:href="#L1_40" x="-350" y="0"/><use xlink:href="#L1_40" x="0" y="0"/><use xlink:href="#L1_40" x="350" y="0"/><use xlink:href="#L1_40" x="-350" y="350"/><use xlink:href="#L1_40" x="0" y="350"/><use xlink:href="#L1_40" x="350" y="350"/></pattern><rect x="0" y="0" width="100%" height="100%" fill="url(#pattern_L1_40)"/></g><g fi:class="KUsePattern"><pattern id="pattern_L1_41" width="350" height="350" patternUnits="userSpaceOnUse"><use xlink:href="#L1_41" x="-350" y="-350"/><use xlink:href="#L1_41" x="0" y="-350"/><use xlink:href="#L1_41" x="350" y="-350"/><use xlink:href="#L1_41" x="-350" y="0"/><use xlink:href="#L1_41" x="0" y="0"/><use xlink:href="#L1_41" x="350" y="0"/><use xlink:href="#L1_41" x="-350" y="350"/><use xlink:href="#L1_41" x="0" y="350"/><use xlink:href="#L1_41" x="350" y="350"/></pattern><rect x="0" y="0" width="100%" height="100%" fill="url(#pattern_L1_41)"/></g><g fi:class="KUsePattern"><pattern id="pattern_L1_42" width="350" height="350" patternUnits="userSpaceOnUse"><use xlink:href="#L1_42" x="-350" y="-350"/><use xlink:href="#L1_42" x="0" y="-350"/><use xlink:href="#L1_42" x="350" y="-350"/><use xlink:href="#L1_42" x="-350" y="0"/><use xlink:href="#L1_42" x="0" y="0"/><use xlink:href="#L1_42" x="350" y="0"/><use xlink:href="#L1_42" x="-350" y="350"/><use xlink:href="#L1_42" x="0" y="350"/><use xlink:href="#L1_42" x="350" y="350"/></pattern><rect x="0" y="0" width="100%" height="100%" fill="url(#pattern_L1_42)"/></g><g fi:class="KUsePattern"><pattern id="pattern_L1_44" width="350" height="350" patternUnits="userSpaceOnUse"><use xlink:href="#L1_44" x="-350" y="-350"/><use xlink:href="#L1_44" x="0" y="-350"/><use xlink:href="#L1_44" x="350" y="-350"/><use xlink:href="#L1_44" x="-350" y="0"/><use xlink:href="#L1_44" x="0" y="0"/><use xlink:href="#L1_44" x="350" y="0"/><use xlink:href="#L1_44" x="-350" y="350"/><use xlink:href="#L1_44" x="0" y="350"/><use xlink:href="#L1_44" x="350" y="350"/></pattern><rect x="0" y="0" width="100%" height="100%" fill="url(#pattern_L1_44)"/></g><g fi:class="KUsePattern"><pattern id="pattern_L1_45" width="350" height="350" patternUnits="userSpaceOnUse"><use xlink:href="#L1_45" x="-350" y="-350"/><use xlink:href="#L1_45" x="0" y="-350"/><use xlink:href="#L1_45" x="350" y="-350"/><use xlink:href="#L1_45" x="-350" y="0"/><use xlink:href="#L1_45" x="0" y="0"/><use xlink:href="#L1_45" x="350" y="0"/><use xlink:href="#L1_45" x="-350" y="350"/><use xlink:href="#L1_45" x="0" y="350"/><use xlink:href="#L1_45" x="350" y="350"/></pattern><rect x="0" y="0" width="100%" height="100%" fill="url(#pattern_L1_45)"/></g><g fi:class="KUsePattern"><pattern id="pattern_L1_46" width="350" height="350" patternUnits="userSpaceOnUse"><use xlink:href="#L1_46" x="-350" y="-350"/><use xlink:href="#L1_46" x="0" y="-350"/><use xlink:href="#L1_46" x="350" y="-350"/><use xlink:href="#L1_46" x="-350" y="0"/><use xlink:href="#L1_46" x="0" y="0"/><use xlink:href="#L1_46" x="350" y="0"/><use xlink:href="#L1_46" x="-350" y="350"/><use xlink:href="#L1_46" x="0" y="350"/><use xlink:href="#L1_46" x="350" y="350"/></pattern><rect x="0" y="0" width="100%" height="100%" fill="url(#pattern_L1_46)"/></g></svg>